<svg xmlns="http://www.w3.org/2000/svg" viewBox="0 0 200 200" fill="none">
  <!-- Background circle -->
  <circle cx="100" cy="100" r="100" fill="#FBF3DB"/>
  <!-- Head -->
  <ellipse cx="100" cy="90" rx="42" ry="46" fill="#C68642"/>
  <!-- Headwrap -->
  <path d="M58 82 Q58 48 100 42 Q142 48 142 82 Q142 72 130 65 Q100 50 70 65 Q58 72 58 82Z" fill="#E8C96A"/>
  <path d="M58 82 Q55 88 60 90 Q80 78 100 76 Q120 78 140 90 Q145 88 142 82 Q142 72 130 65 Q100 50 70 65 Q58 72 58 82Z" fill="#D4A853"/>
  <!-- Headwrap knot -->
  <ellipse cx="138" cy="68" rx="10" ry="8" fill="#E8C96A"/>
  <ellipse cx="142" cy="64" rx="7" ry="5" fill="#D4A853"/>
  <!-- Eyes -->
  <ellipse cx="84" cy="88" rx="5" ry="6" fill="#1E1A14"/>
  <ellipse cx="116" cy="88" rx="5" ry="6" fill="#1E1A14"/>
  <ellipse cx="86" cy="86" rx="2" ry="2.5" fill="#FEFDFB"/>
  <ellipse cx="118" cy="86" rx="2" ry="2.5" fill="#FEFDFB"/>
  <!-- Eyebrows -->
  <path d="M76 80 Q84 76 92 80" stroke="#1E1A14" stroke-width="2" stroke-linecap="round" fill="none"/>
  <path d="M108 80 Q116 76 124 80" stroke="#1E1A14" stroke-width="2" stroke-linecap="round" fill="none"/>
  <!-- Nose -->
  <ellipse cx="100" cy="98" rx="4" ry="3" fill="#B5763A"/>
  <!-- Smile -->
  <path d="M88 108 Q100 118 112 108" stroke="#1E1A14" stroke-width="2.5" stroke-linecap="round" fill="none"/>
  <!-- Cheeks -->
  <ellipse cx="76" cy="102" rx="7" ry="4" fill="#E8A08A" opacity="0.4"/>
  <ellipse cx="124" cy="102" rx="7" ry="4" fill="#E8A08A" opacity="0.4"/>
  <!-- Neck -->
  <rect x="90" y="130" width="20" height="14" rx="4" fill="#C68642"/>
  <!-- Shoulders/Body -->
  <path d="M55 200 Q55 150 100 144 Q145 150 145 200Z" fill="#5C4A2A"/>
  <!-- Collar detail -->
  <path d="M82 144 L100 158 L118 144" stroke="#E8C96A" stroke-width="2.5" fill="none" stroke-linecap="round"/>
  <!-- Earring -->
  <circle cx="58" cy="96" r="3.5" fill="#E8C96A"/>
  <circle cx="58" cy="96" r="1.5" fill="#D4A853"/>
</svg>