<svg xmlns="http://www.w3.org/2000/svg" viewBox="0 0 200 200" fill="none">
  <!-- Background circle -->
  <circle cx="100" cy="100" r="100" fill="#EDF3EC"/>
  <!-- Head -->
  <ellipse cx="100" cy="92" rx="38" ry="42" fill="#A0673C"/>
  <!-- Hair - braided crown -->
  <path d="M62 80 Q62 46 100 40 Q138 46 138 80" fill="#1E1A14"/>
  <circle cx="72" cy="52" r="8" fill="#1E1A14"/>
  <circle cx="86" cy="44" r="9" fill="#1E1A14"/>
  <circle cx="100" cy="40" r="9" fill="#1E1A14"/>
  <circle cx="114" cy="44" r="9" fill="#1E1A14"/>
  <circle cx="128" cy="52" r="8" fill="#1E1A14"/>
  <!-- Braid details -->
  <ellipse cx="72" cy="50" rx="5" ry="6" fill="#3C2F1A"/>
  <ellipse cx="86" cy="42" rx="5" ry="6" fill="#3C2F1A"/>
  <ellipse cx="100" cy="38" rx="5" ry="6" fill="#3C2F1A"/>
  <ellipse cx="114" cy="42" rx="5" ry="6" fill="#3C2F1A"/>
  <ellipse cx="128" cy="50" rx="5" ry="6" fill="#3C2F1A"/>
  <!-- Gold hair rings -->
  <circle cx="72" cy="52" r="3" fill="none" stroke="#E8C96A" stroke-width="1.5"/>
  <circle cx="100" cy="40" r="3.5" fill="none" stroke="#E8C96A" stroke-width="1.5"/>
  <circle cx="128" cy="52" r="3" fill="none" stroke="#E8C96A" stroke-width="1.5"/>
  <!-- Eyes -->
  <ellipse cx="84" cy="90" rx="5" ry="5.5" fill="#1E1A14"/>
  <ellipse cx="116" cy="90" rx="5" ry="5.5" fill="#1E1A14"/>
  <ellipse cx="86" cy="88" rx="2" ry="2.2" fill="#FEFDFB"/>
  <ellipse cx="118" cy="88" rx="2" ry="2.2" fill="#FEFDFB"/>
  <!-- Eyelashes -->
  <path d="M78 86 L76 83" stroke="#1E1A14" stroke-width="1.2" stroke-linecap="round"/>
  <path d="M80 85 L79 82" stroke="#1E1A14" stroke-width="1.2" stroke-linecap="round"/>
  <path d="M120 85 L121 82" stroke="#1E1A14" stroke-width="1.2" stroke-linecap="round"/>
  <path d="M122 86 L124 83" stroke="#1E1A14" stroke-width="1.2" stroke-linecap="round"/>
  <!-- Eyebrows - arched -->
  <path d="M75 82 Q84 76 93 81" stroke="#1E1A14" stroke-width="1.8" stroke-linecap="round" fill="none"/>
  <path d="M107 81 Q116 76 125 82" stroke="#1E1A14" stroke-width="1.8" stroke-linecap="round" fill="none"/>
  <!-- Nose -->
  <ellipse cx="100" cy="99" rx="3.5" ry="3" fill="#8B5A2B"/>
  <!-- Confident smile -->
  <path d="M88 108 Q100 117 112 108" stroke="#1E1A14" stroke-width="2.2" stroke-linecap="round" fill="none"/>
  <!-- Lip color -->
  <path d="M90 109 Q100 115 110 109" fill="#C4735A" opacity="0.5"/>
  <!-- Cheeks -->
  <ellipse cx="74" cy="103" rx="6" ry="3.5" fill="#E8A08A" opacity="0.3"/>
  <ellipse cx="126" cy="103" rx="6" ry="3.5" fill="#E8A08A" opacity="0.3"/>
  <!-- Neck -->
  <rect x="90" y="129" width="20" height="14" rx="4" fill="#A0673C"/>
  <!-- Necklace -->
  <path d="M78 148 Q100 156 122 148" stroke="#E8C96A" stroke-width="1.8" fill="none"/>
  <circle cx="100" cy="155" r="3.5" fill="#E8C96A"/>
  <!-- Shoulders/Body - modern outfit -->
  <path d="M55 200 Q55 150 100 144 Q145 150 145 200Z" fill="#1E1A14"/>
  <!-- Collar V-neck -->
  <path d="M85 144 L100 162 L115 144" stroke="#E8C96A" stroke-width="2" fill="none" stroke-linecap="round"/>
  <!-- Earrings -->
  <circle cx="62" cy="96" r="3" fill="#E8C96A"/>
  <circle cx="138" cy="96" r="3" fill="#E8C96A"/>
</svg>